<?xml version="1.0" encoding="UTF-8"?>
<svg version="1.1" xmlns="http://www.w3.org/2000/svg" width="598" height="482">
<path d="M0 0 C197.34 0 394.68 0 598 0 C598 159.06 598 318.12 598 482 C400.66 482 203.32 482 0 482 C0 322.94 0 163.88 0 0 Z " fill="#2D2A34" transform="translate(0,0)"/>
<path d="M0 0 C6.80002864 4.39168517 11.57272744 10.70433607 16.1875 17.25 C16.74066895 18.02617676 17.29383789 18.80235352 17.86376953 19.60205078 C51.13040469 66.55725875 51.13040469 66.55725875 49 94.9375 C48.18540611 98.96392123 46.86613759 102.29297425 45 105.9375 C44.59910156 106.83339844 44.19820313 107.72929687 43.78515625 108.65234375 C37.56624726 121.50475565 26.84335574 130.26640785 14 135.9375 C-1.56064674 141.01013374 -17.23897492 140.33381687 -31.81030273 132.95874023 C-37.70111571 129.77907212 -42.36558715 125.71781103 -47 120.9375 C-47.57234375 120.37417969 -48.1446875 119.81085938 -48.734375 119.23046875 C-59.10993285 108.23986495 -61.69379125 94.46937056 -61.375 79.953125 C-61.02482776 73.26483522 -58.98016184 67.89014285 -56 61.9375 C-55.56171875 60.92816406 -55.1234375 59.91882813 -54.671875 58.87890625 C-46.37610593 40.6937072 -33.66914151 24.13368743 -21.2800293 8.55004883 C-20.1103454 7.07651037 -18.96219712 5.58594277 -17.81640625 4.09375 C-13.05544427 -1.55797261 -6.76169911 -2.39476843 0 0 Z " fill="#5C26F4" transform="translate(302,108.0625)"/>
<path d="M0 0 C5.5275 -0.103125 11.055 -0.20625 16.75 -0.3125 C18.46799805 -0.35802002 20.18599609 -0.40354004 21.95605469 -0.45043945 C33.25937543 -0.62496935 42.63400916 0.86807054 51.4375 8.625 C59.33036578 17.52301153 60.87423209 26.2877495 60.33984375 37.8203125 C59.70445737 46.77114489 56.89115125 51.73918266 51.03515625 58.54296875 C40.17930259 67.33104076 30.59053863 67.78665507 17.25 67.375 C8.71125 67.189375 8.71125 67.189375 0 67 C0 44.89 0 22.78 0 0 Z " fill="#F8F8F8" transform="translate(168,273)"/>
<path d="M0 0 C2.265625 1.265625 2.265625 1.265625 3.21484375 3.171875 C3.30499444 6.88885736 1.21838525 9.18854825 -0.734375 12.265625 C-6.734375 10.265625 -6.734375 10.265625 -9.671875 9.140625 C-13.14202539 8.14915346 -16.143101 8.12197404 -19.734375 8.265625 C-20.394375 10.245625 -21.054375 12.225625 -21.734375 14.265625 C-20.496875 14.636875 -19.259375 15.008125 -17.984375 15.390625 C-0.02982955 21.44176136 -0.02982955 21.44176136 4.265625 29.265625 C5.33953597 34.15282999 4.67886126 38.17970908 2.328125 42.578125 C-0.88552464 47.03806536 -4.39931468 49.06841651 -9.734375 50.265625 C-20.3155766 51.37821575 -28.85626488 50.18436508 -37.734375 44.265625 C-36.6249678 40.77891666 -35.47099834 37.49078263 -33.734375 34.265625 C-33.095 34.53375 -32.455625 34.801875 -31.796875 35.078125 C-30.78625 35.47 -29.775625 35.861875 -28.734375 36.265625 C-28.06792969 36.52988281 -27.40148437 36.79414063 -26.71484375 37.06640625 C-21.15932543 39.11932108 -16.64956639 39.54730078 -10.734375 39.265625 C-10.734375 37.285625 -10.734375 35.305625 -10.734375 33.265625 C-11.28375732 33.05470215 -11.83313965 32.8437793 -12.39916992 32.62646484 C-14.91413278 31.64911607 -17.41768 30.64522547 -19.921875 29.640625 C-20.78619141 29.30933594 -21.65050781 28.97804688 -22.54101562 28.63671875 C-28.1098147 26.37506089 -31.51440096 24.42020666 -34.734375 19.265625 C-35.78815154 14.32951385 -35.15129874 9.61449591 -33.671875 4.828125 C-31.07401517 1.39224587 -28.59566638 0.16116804 -24.734375 -1.734375 C-17.41742244 -5.39285128 -7.2846859 -2.40280216 0 0 Z " fill="#F7F7F7" transform="translate(299.734375,290.734375)"/>
<path d="M0 0 C4.95 0 9.9 0 15 0 C15 3.96 15 7.92 15 12 C19.29 12 23.58 12 28 12 C28 15.63 28 19.26 28 23 C23.71 23 19.42 23 15 23 C15.11358571 27.27142048 15.24034641 31.54173682 15.375 35.8125 C15.4059375 37.02744141 15.436875 38.24238281 15.46875 39.49414062 C15.50742187 40.65751953 15.54609375 41.82089844 15.5859375 43.01953125 C15.63306885 44.62985229 15.63306885 44.62985229 15.68115234 46.27270508 C15.81592307 49.2160765 15.81592307 49.2160765 18 52 C19.97747122 52.36297936 19.97747122 52.36297936 22.125 52.1875 C23.40375 52.125625 24.6825 52.06375 26 52 C26.99 54.97 27.98 57.94 29 61 C24.12709786 65.00274104 19.71541744 65.37484906 13.53515625 65.265625 C9.50630481 64.84349573 6.9694458 63.7339932 4 61 C-1.07958574 53.67387801 -0.46920459 45.49069443 -0.25 36.9375 C-0.22989291 35.58140675 -0.21164961 34.22528453 -0.1953125 32.86914062 C-0.14847313 29.57867514 -0.08288862 26.28972165 0 23 C-0.969375 23.020625 -1.93875 23.04125 -2.9375 23.0625 C-6 23 -6 23 -7 22 C-7.07179964 20.48071962 -7.08392007 18.95832518 -7.0625 17.4375 C-7.05347656 16.61121094 -7.04445313 15.78492188 -7.03515625 14.93359375 C-7.02355469 14.29550781 -7.01195312 13.65742188 -7 13 C-4.69 13 -2.38 13 0 13 C0 8.71 0 4.42 0 0 Z " fill="#F3F3F4" transform="translate(317,276)"/>
<path d="M0 0 C20.32848837 0 20.32848837 0 24.5859375 4.1796875 C29.3024027 10.25115928 30.67185112 15.19353858 30.38671875 22.9609375 C29.61603556 29.01741751 27.85479859 34.09764247 23.5625 38.5 C15.0019206 43.51107087 11.71119894 42 0 42 C0 28.14 0 14.28 0 0 Z " fill="#2E2B35" transform="translate(183,286)"/>
<path d="M0 0 C4.62 0 9.24 0 14 0 C14 23.43 14 46.86 14 71 C9.38 71 4.76 71 0 71 C0 47.57 0 24.14 0 0 Z " fill="#FCFCFC" transform="translate(410,269)"/>
<path d="M0 0 C4.62 0 9.24 0 14 0 C14 23.43 14 46.86 14 71 C9.38 71 4.76 71 0 71 C0 47.57 0 24.14 0 0 Z " fill="#FCFCFC" transform="translate(383,269)"/>
<path d="M0 0 C4.95 0 9.9 0 15 0 C15 17.16 15 34.32 15 52 C10.05 52 5.1 52 0 52 C0 34.84 0 17.68 0 0 Z " fill="#F3F3F4" transform="translate(238,288)"/>
<path d="M0 0 C4.62 0 9.24 0 14 0 C14 16.83 14 33.66 14 51 C9.38 51 4.76 51 0 51 C0 34.17 0 17.34 0 0 Z " fill="#FCFCFC" transform="translate(356,289)"/>
<path d="M0 0 C1.67542976 0.28604898 3.34385343 0.61781233 5 1 C5.98140985 11.55015588 1.59091511 21.93916858 -5 30 C-11.39538198 37.43369105 -19.254619 43.04471655 -29 45 C-32.6837875 45.21950029 -36.3156617 45.18593857 -40 45 C-40.5625 43.0625 -40.5625 43.0625 -41 41 C-39.44119879 39.44119879 -37.64674636 39.50266834 -35.5 39.125 C-22.43237304 36.55615026 -13.36024734 31.45668354 -5.8125 20.234375 C-2.81658531 14.9915243 -2.12424196 9.60013779 -1.39453125 3.66015625 C-1 1 -1 1 0 0 Z " fill="#2F293E" transform="translate(334,185)"/>
<path d="M0 0 C4.43024874 0.87022743 5.91370196 2.00398461 8.5 5.6875 C9.01361669 9.34701893 8.93348212 11.65797997 7.5 15.0625 C4.43447563 17.55323855 1.40122132 17.9916888 -2.5 17.6875 C-6.33855447 15.72738708 -7.26282398 14.39902806 -8.625 10.3125 C-8.5 6.6875 -8.5 6.6875 -6.5 3.25 C-3.5 0.6875 -3.5 0.6875 0 0 Z " fill="#F2F2F2" transform="translate(362.5,263.3125)"/>
<path d="M0 0 C4.63235294 2.26470588 4.63235294 2.26470588 6 5 C6.25775408 8.47968002 6.36487133 11.13343059 5 14.375 C1.95328478 16.85045612 -1.14171584 17.07015062 -5 17 C-7.70191764 16.21786595 -8.60388485 15.5092909 -10.3125 13.3125 C-11.33096265 9.88676201 -10.86045982 7.44183926 -10 4 C-7.16222736 -0.09900493 -4.87083808 -0.69583401 0 0 Z " fill="#F3F3F3" transform="translate(248,264)"/>
</svg>
