<?xml version="1.0" encoding="UTF-8" standalone="no" ?>
<!DOCTYPE svg PUBLIC "-//W3C//DTD SVG 1.1//EN" "http://www.w3.org/Graphics/SVG/1.1/DTD/svg11.dtd">
<svg xmlns="http://www.w3.org/2000/svg" xmlns:xlink="http://www.w3.org/1999/xlink" version="1.1" width="640" height="480" viewBox="0 0 640 480" xml:space="preserve">
<desc>Created with Fabric.js 3.6.6</desc>
<defs>
</defs>
<g transform="matrix(-0.88 0 0 0.88 320.24 240.01)"  >
<path style="stroke: none; stroke-width: 1; stroke-dasharray: none; stroke-linecap: butt; stroke-dashoffset: 0; stroke-linejoin: miter; stroke-miterlimit: 4; fill: rgb(92,38,244); fill-rule: nonzero; opacity: 1;"  transform=" translate(-192, -256)" d="M 192 512 C 86 512 0 426 0 320 C 0 228.8 130.2 57.7 166.6 11.7 C 172.6 4.2 181.5 0 191.1 0 l 1.8 0 c 9.6 0 18.5 4.2 24.5 11.7 C 253.8 57.7 384 228.8 384 320 c 0 106 -86 192 -192 192 z M 96 336 c 0 -8.8 -7.2 -16 -16 -16 s -16 7.2 -16 16 c 0 61.9 50.1 112 112 112 c 8.8 0 16 -7.2 16 -16 s -7.2 -16 -16 -16 c -44.2 0 -80 -35.8 -80 -80 z" stroke-linecap="round" />
</g>
</svg>